<?xml version="1.0" encoding="UTF-8"?>
<svg width="150px" height="150px" viewBox="0 0 150 150" version="1.1" xmlns="http://www.w3.org/2000/svg" xmlns:xlink="http://www.w3.org/1999/xlink">
    <title>safari-pinned-tab</title>
    <g id="safari-pinned-tab" stroke="none" stroke-width="1" fill="none" fill-rule="evenodd">
        <g id="Group" transform="translate(0.000000, 1.000000)">
            <g id="Shape" transform="translate(3.500000, 0.000000)">
                <path d="M71.762898,1.42285656 C66.207499,-1.63225765 59.2319346,0.394655485 56.1765696,5.95007288 C53.1287725,11.5057512 55.1556789,18.4813388 60.7110779,21.536453 C66.2667378,24.5915672 73.2425632,22.557347 76.2976673,17.0094976 C79.3452034,11.4535583 77.318297,4.4704028 71.762898,1.42285656 Z M18.5014758,28.8969635 C9.61722163,53.0790002 14.8842555,80.6935061 32.7120027,99.9268685 C43.0534792,101.184197 54.3346866,98.8023714 64.1435358,92.3521059 C66.4590682,90.8205039 69.2404212,86.9738836 71.9479214,89.7187107 C75.8315858,93.639184 65.5788371,98.3365494 63.2338157,99.6974805 C66.6438306,100.73325 73.0724148,99.4829675 82.4966032,95.9401101 C92.3498163,92.248242 93.2449224,98.4177094 84.3014294,100.615033 C73.2793591,103.337156 71.0157585,104.424335 71.0157585,104.424335 C72.8798234,105.312398 77.9915838,105.349455 86.3432107,104.543074 C96.5664706,103.558976 96.2261737,109.965399 86.5504161,110.401732 C82.0451357,110.608938 76.9485112,110.564313 71.2746346,110.26864 C72.4434918,111.955255 77.636412,112.961274 86.8536561,113.286436 C93.1488876,113.508778 92.7864088,117.939438 86.5355411,117.828789 C80.8765395,117.724925 75.3801183,116.829816 70.9197238,116.918544 C72.2733434,118.546181 76.3122813,119.655542 78.9459287,119.604132 C83.3841413,119.515404 84.5605665,120.979938 83.2659247,122.178972 C88.2813894,122.20047 93.2819792,121.682716 98.1789664,120.632333 C120.193879,96.6274913 156.647923,75.7299568 138.280502,42.9152064 C140.336898,52.8939762 131.622792,63.886594 121.798807,68.6361522 C98.1051136,80.0945921 63.9141485,84.2593284 37.8013202,80.0129101 C31.1806667,78.933038 30.2858216,74.7977907 37.4391024,75.8706168 C40.0503069,76.2550178 44.1928475,75.6709787 45.7463654,74.2356727 C41.3300737,73.5775196 35.7597998,73.7620217 30.137855,73.1336186 C23.9240442,72.4454546 24.1385565,67.9993983 30.4116061,68.5917882 C39.5915324,69.4495793 44.8734412,69.1165883 46.2495038,67.5928152 C40.5753662,67.1564822 35.5231056,66.5497391 31.084632,65.7731081 C21.534398,64.093539 22.0229224,57.6949445 32.0387159,59.9809957 C40.2204553,61.8523738 45.2875909,62.4661629 47.2552585,61.8301918 C47.2552585,61.8301918 45.1471923,60.4614317 34.5687607,56.3559344 C25.9731325,53.0200222 27.6597421,47.0204428 36.9508389,51.9469352 C45.8497071,56.6667434 52.056211,58.7307136 55.5773965,58.1464135 C53.4249665,56.4895484 43.8598576,50.519458 48.2096034,47.1243067 C51.2574005,44.7495276 53.5134332,48.9291389 55.6217604,50.733971 C72.5249126,65.284843 127.554104,63.0431559 130.16557,44.6827206 C132.458659,28.6007685 88.2443326,10.7139842 60.2006326,46.2216297 C61.302944,43.0553445 62.6863135,39.9853553 64.3431731,37.0414121 C52.4630536,19.8647128 32.934083,19.4059368 18.5014758,28.8969635 Z" fill="#B82E61"></path>
                <path d="M29.2500559,52.5388032 C26.453828,55.0098783 23.8574984,57.7836725 21.5049091,60.8612297 C14.9729833,69.3903403 11.1412507,79.132676 9.86148382,89.0749107 C22.8068578,102.309216 45.9979346,104.284197 64.1435358,92.3521059 C66.4590682,90.8205039 69.2404212,86.9738836 71.9479214,89.7187107 C75.8315858,93.639184 65.5788371,98.3365494 63.2338157,99.6974805 C66.6438306,100.73325 73.0724148,99.4829675 82.4966032,95.9401101 C92.3498163,92.248242 93.2449224,98.4177094 84.3014294,100.615033 C73.2793591,103.337156 71.0157585,104.424335 71.0157585,104.424335 C72.8798234,105.312398 77.9915838,105.349455 86.3432107,104.543074 C96.5664706,103.558976 96.2261737,109.965399 86.5504161,110.401732 C82.0451357,110.608938 76.9485112,110.564313 71.2746346,110.26864 C72.4434918,111.955255 77.636412,112.961274 86.8536561,113.286436 C93.1488876,113.508778 92.7864088,117.939438 86.5355411,117.828789 C80.8765395,117.724925 75.3801183,116.829816 70.9197238,116.918544 C72.2733434,118.546181 76.3122813,119.655542 78.9459287,119.604132 C86.1803693,119.463472 84.7602039,123.450752 78.0508226,123.665526 C64.8316975,124.09403 49.8810771,122.178288 35.4860487,118.361679 C43.0091153,127.201337 63.0339174,141.434093 83.1401401,150 C84.0647351,127.91899 109.378753,111.111556 126.87351,92.595847 C126.311394,84.5252514 124.099464,76.5877479 120.312096,69.3384084 C96.6919942,80.2571731 63.3744752,84.1706003 37.8013202,80.0129101 C31.1806667,78.933038 30.2858216,74.7977907 37.4391024,75.8706168 C40.0503069,76.2550178 44.1928475,75.6709787 45.7463654,74.2356727 C41.3300737,73.5775196 35.7597998,73.7620217 30.137855,73.1336186 C23.9240442,72.4454546 24.1385565,67.9993983 30.4116061,68.5917882 C39.5915324,69.4495793 44.8734412,69.1165883 46.2495038,67.5928152 C40.5753662,67.1564822 35.5231056,66.5497391 31.084632,65.7731081 C21.534398,64.093539 22.0229224,57.6949445 32.0387159,59.9809957 C40.2204553,61.8523738 45.2875909,62.4661629 47.2552585,61.8301918 C47.2552585,61.8301918 45.1471923,60.4614317 34.5687607,56.3559344 C31.6245662,55.2095163 29.8862859,53.7595962 29.2500559,52.5388032 Z M103.949139,49.9205439 C93.2819792,41.7460844 80.706391,37.7958611 68.2268375,37.8034183 C65.4527915,40.1928223 62.7528593,42.9814915 60.2006326,46.2216297 C61.1847273,43.3883355 62.3976874,40.6215873 63.8402957,37.9660101 C52.4703606,38.8167552 41.3817446,42.9446955 32.1128296,50.156978 C33.3704146,50.356877 34.9904783,50.90412 36.9508389,51.9469352 C45.8497071,56.6667434 52.056211,58.7307136 55.5773965,58.1464135 C53.4249665,56.4895484 43.8598576,50.519458 48.2096034,47.1243067 C51.2574005,44.7495276 53.5134332,48.9291389 55.6217604,50.733971 C66.6957625,60.2693617 94.1400284,62.5919479 112.485528,57.9024115 C109.955744,55.0169244 107.115152,52.3394261 103.949139,49.9205439 Z" fill="#B1BFDA"></path>
                <path d="M29.2500559,52.5388032 C26.453828,55.0098783 23.8574984,57.7836725 21.5049091,60.8612297 C19.4782636,63.5019319 17.7248473,66.2613731 16.2159542,69.1019743 C18.9307614,80.3902651 24.4788534,91.0498919 32.7120027,99.9268685 C43.0534792,101.184197 54.3346866,98.8023714 64.1435358,92.3521059 C66.4590682,90.8205039 69.2404212,86.9738836 71.9479214,89.7187107 C75.8315858,93.639184 65.5788371,98.3365494 63.2338157,99.6974805 C66.6438306,100.73325 73.0724148,99.4829675 82.4966032,95.9401101 C92.3498163,92.248242 93.2449224,98.4177094 84.3014294,100.615033 C73.2793591,103.337156 71.0157585,104.424335 71.0157585,104.424335 C72.8798234,105.312398 77.9915838,105.349455 86.3432107,104.543074 C96.5664706,103.558976 96.2261737,109.965399 86.5504161,110.401732 C82.0451357,110.608938 76.9485112,110.564313 71.2746346,110.26864 C72.4434918,111.955255 77.636412,112.961274 86.8536561,113.286436 C93.1488876,113.508778 92.7864088,117.939438 86.5355411,117.828789 C80.8765395,117.724925 75.3801183,116.829816 70.9197238,116.918544 C72.2733434,118.546181 76.3122813,119.655542 78.9459287,119.604132 C83.3841413,119.515404 84.5605665,120.979938 83.2734927,122.178972 C88.2813894,122.20047 93.2819792,121.682716 98.1789664,120.632333 C106.907947,111.111556 117.915403,102.079828 126.866203,92.595847 C126.311394,84.5252514 124.107032,76.5877479 120.312096,69.3384084 C96.6919942,80.2571731 63.3744752,84.1706003 37.8013202,80.0129101 C31.1806667,78.933038 30.2858216,74.7977907 37.4391024,75.8706168 C40.0503069,76.2550178 44.1928475,75.6709787 45.7463654,74.2356727 C41.3300737,73.5775196 35.7597998,73.7620217 30.137855,73.1336186 C23.9240442,72.4454546 24.1385565,67.9993983 30.4116061,68.5917882 C39.5915324,69.4495793 44.8734412,69.1165883 46.2495038,67.5928152 C40.5753662,67.1564822 35.5231056,66.5497391 31.084632,65.7731081 C21.534398,64.093539 22.0229224,57.6949445 32.0387159,59.9809957 C40.2204553,61.8523738 45.2875909,62.4661629 47.2552585,61.8301918 C47.2552585,61.8301918 45.1471923,60.4614317 34.5687607,56.3559344 C31.6245662,55.2095163 29.8862859,53.7595962 29.2500559,52.5388032 Z M103.949139,49.912715 C93.2819792,41.7460844 80.706391,37.7958611 68.2268375,37.8034183 C65.4527915,40.1928223 62.7528593,42.9814915 60.2006326,46.2216297 C61.1847273,43.3883355 62.3976874,40.6215873 63.8402957,37.9660101 C52.4703606,38.8167552 41.3817446,42.9446955 32.1128296,50.156978 C33.3704146,50.356877 34.9904783,50.90412 36.9508389,51.9469352 C45.8497071,56.6667434 52.056211,58.7307136 55.5773965,58.1464135 C53.4249665,56.4895484 43.8598576,50.519458 48.2096034,47.1243067 C51.2574005,44.7495276 53.5134332,48.9291389 55.6217604,50.733971 C66.6957625,60.2693617 94.1400284,62.5919479 112.485528,57.9024115 C109.955744,55.0169244 107.115152,52.3394261 103.949139,49.912715 Z" fill="#5A79AB"></path>
                <path d="M71.9774103,89.7481997 C73.8341683,86.8632345 75.3211405,83.8378703 76.4453729,80.7159491 C63.0560993,82.1288122 49.6078479,81.9289132 37.8013202,80.0129101 C31.1806667,78.933038 30.2858216,74.7977907 37.4391024,75.8706168 C40.0503069,76.2550178 44.1928475,75.6709787 45.7463654,74.2356727 C41.3300737,73.5775196 35.7597998,73.7620217 30.137855,73.1336186 C23.9240442,72.4454546 24.1385565,67.9993983 30.4116061,68.5917882 C39.5915324,69.4495793 44.8734412,69.1165883 46.2495038,67.5928152 C40.5753662,67.1564822 35.5231056,66.5497391 31.084632,65.7731081 C21.534398,64.093539 22.0229224,57.6949445 32.0387159,59.9809957 C40.2204553,61.8523738 45.2875909,62.4661629 47.2552585,61.8301918 C47.2552585,61.8301918 45.1471923,60.4614317 34.5687607,56.3559344 C25.9731325,53.0200222 27.6597421,47.0204428 36.9508389,51.9469352 C45.8497071,56.6667434 52.056211,58.7307136 55.5773965,58.1464135 C53.4249665,56.4895484 43.8598576,50.519458 48.2096034,47.1243067 C51.2574005,44.7495276 53.5134332,48.9291389 55.6217604,50.733971 C60.6891569,55.0986063 69.1960574,57.9538215 78.6867916,59.3152746 C77.5847411,51.303918 74.3446137,43.5809275 69.0851477,37.0857761 C66.0002937,39.6377503 63.0193034,42.6563294 60.2006326,46.2216297 C61.302944,43.0553445 62.6863135,39.9853553 64.3431731,37.0414121 C43.7416409,7.25228694 0.148669331,27.7354094 0.00035047665,63.2281799 C-0.132388763,97.3748943 37.4685913,109.898592 64.1435358,92.3521059 C66.4590682,90.8205039 69.2404212,86.9738836 71.9479214,89.7187107 L71.9774103,89.7481997 Z M63.4382152,100.238982 L64.1185796,99.6591161 L63.2363293,100.162497 L63.4382152,100.238982 Z" fill="#71B289"></path>
                <path d="M78.6794846,59.3152746 C77.629105,51.5993301 74.5813079,44.1579205 69.6621388,37.8183041 C69.1814434,37.8104752 68.7077939,37.8034291 68.2268375,37.8034291 C65.4527915,40.1928223 62.7528593,42.9814915 60.2006326,46.2216297 C61.1847273,43.3883355 62.3976874,40.6215873 63.8402957,37.9660101 C52.4703606,38.8167552 41.3817446,42.9446955 32.1055227,50.156978 C33.3704146,50.356877 34.9904783,50.90412 36.9508389,51.9469352 C45.8497071,56.6667434 52.056211,58.7307136 55.5773965,58.1464135 C53.4249665,56.4895484 43.8598576,50.519458 48.2096034,47.1243067 C51.2574005,44.7495276 53.5134332,48.9291389 55.6217604,50.733971 C60.6891569,55.0986063 69.1960574,57.9538215 78.6794846,59.3152746 Z M71.9849783,89.7481997 C73.8341683,86.8632345 75.3211405,83.8378703 76.4453729,80.7159491 C63.0560993,82.1288122 49.6078479,81.9289132 37.8013202,80.0129101 C31.1806667,78.933038 30.2858216,74.7977907 37.4391024,75.8706168 C40.0503069,76.2550178 44.1928475,75.6709787 45.7463654,74.2356727 C41.3300737,73.5775196 35.7597998,73.7620217 30.137855,73.1336186 C23.9240442,72.4454546 24.1385565,67.9993983 30.4116061,68.5917882 C39.5915324,69.4495793 44.8734412,69.1165883 46.2495038,67.5928152 C40.5753662,67.1564822 35.5231056,66.5497391 31.084632,65.7731081 C21.534398,64.093539 22.0229224,57.6949445 32.0387159,59.9809957 C40.2204553,61.8523738 45.2875909,62.4661629 47.2552585,61.8301918 C47.2552585,61.8301918 45.1471923,60.4614317 34.5687607,56.3559344 C31.6245662,55.2095163 29.8862859,53.7595962 29.2500559,52.5317571 C26.453828,55.0098783 23.8574984,57.7836725 21.5049091,60.8612297 C14.9729833,69.3903403 11.1412507,79.132676 9.86148382,89.0749107 C22.8068578,102.309216 45.9979346,104.284197 64.1435358,92.3521059 C66.4590682,90.8205039 69.2404212,86.9738836 71.9479214,89.7187107 L71.9849783,89.7481997 Z M63.4722292,100.22987 L64.1018998,99.6757959 L63.2454411,100.153385 L63.4722292,100.22987 Z" fill="#F4C6B5"></path>
                <path d="M63.4631174,100.238982 L64.1185796,99.6591161 L63.2363293,100.162497 L63.4631174,100.238982 Z M18.5090438,28.8969635 C9.62478959,53.0714322 14.8769485,80.6935061 32.7120027,99.9268685 C43.0534792,101.184197 54.3346866,98.8023714 64.1435358,92.3521059 C66.4590682,90.8205039 69.2404212,86.9738836 71.9479214,89.7187107 L71.9774103,89.7481997 C73.8341683,86.8632345 75.3211405,83.8378703 76.4453729,80.7159491 C63.0560993,82.1288122 49.6078479,81.9289132 37.8013202,80.0129101 C31.1806667,78.933038 30.2858216,74.7977907 37.4391024,75.8706168 C40.0503069,76.2550178 44.1928475,75.6709787 45.7463654,74.2356727 C41.3300737,73.5775196 35.7597998,73.7620217 30.137855,73.1336186 C23.9240442,72.4454546 24.1385565,67.9993983 30.4116061,68.5917882 C39.5915324,69.4495793 44.8734412,69.1165883 46.2495038,67.5928152 C40.5753662,67.1564822 35.5231056,66.5497391 31.084632,65.7731081 C21.534398,64.093539 22.0229224,57.6949445 32.0387159,59.9809957 C40.2204553,61.8523738 45.2875909,62.4661629 47.2552585,61.8301918 C47.2552585,61.8301918 45.1471923,60.4614317 34.5687607,56.3559344 C25.9731325,53.0200222 27.6597421,47.0204428 36.9508389,51.9469352 C45.8497071,56.6667434 52.056211,58.7307136 55.5773965,58.1464135 C53.4249665,56.4895484 43.8598576,50.519458 48.2096034,47.1243067 C51.2574005,44.7495276 53.5134332,48.9291389 55.6217604,50.733971 C60.6891569,55.0986063 69.1960574,57.9538215 78.6867916,59.3152746 C77.5847411,51.303918 74.3446137,43.5809275 69.0851477,37.0857761 C66.0002937,39.6307042 63.0193034,42.6563294 60.2006326,46.2216297 C61.302944,43.0553445 62.6863135,39.9853553 64.3431731,37.0414121 C52.4630536,19.8647128 32.94139,19.4059368 18.5090438,28.8969635 Z" fill="#557D44"></path>
                <path d="M78.6794846,59.3152746 C77.629105,51.5993301 74.5813079,44.1579205 69.6621388,37.8183041 C69.1814434,37.8104752 68.7077939,37.8034291 68.2268375,37.8034291 C65.4527915,40.1928223 62.7528593,42.9814915 60.2006326,46.2216297 C61.1847273,43.3883355 62.3976874,40.6215873 63.8402957,37.9660101 C52.4703606,38.8167552 41.3817446,42.9446955 32.1055227,50.156978 C33.3704146,50.356877 34.9904783,50.90412 36.9508389,51.9469352 C45.8497071,56.6667434 52.056211,58.7307136 55.5773965,58.1464135 C53.4249665,56.4895484 43.8598576,50.519458 48.2096034,47.1243067 C51.2574005,44.7495276 53.5134332,48.9291389 55.6217604,50.733971 C60.6891569,55.0986063 69.1960574,57.9538215 78.6794846,59.3152746 Z M63.4631174,100.238982 L64.1185796,99.6591161 L63.2363293,100.162497 L63.4631174,100.238982 Z M16.2159542,69.1019743 L16.2381361,69.1982703 C16.4450805,70.0490153 16.6671607,70.9068064 16.903855,71.7502445 L16.9852757,72.0239965 L17.2663338,72.9929586 L17.4069933,73.4439057 L17.7619042,74.5389137 L17.821143,74.7385517 L18.1982358,75.8411278 L18.3167134,76.1662898 L18.738431,77.3132299 L18.7827949,77.4390149 L19.1969445,78.511319 L19.3819679,78.962527 L19.7888106,79.9466251 L19.8775383,80.1535701 L20.3879837,81.3224312 L20.4101656,81.3667952 L20.7060986,82.0252092 L20.9206109,82.4764172 L21.1867941,83.0236603 L21.5641479,83.8005523 L21.8527739,84.3775454 L22.2298667,85.1022445 L22.6810733,85.9459435 L22.8955856,86.3454805 L23.4135989,87.2625106 L23.5986222,87.5803656 L24.1458635,88.5127927 L24.3676828,88.8828407 L24.922492,89.7849958 L25.1372653,90.1177258 L25.7288704,91.0279708 L25.9731325,91.3974969 L26.5203738,92.203878 L26.8311818,92.647779 L27.4006049,93.45416 L27.7114129,93.883447 L28.3698248,94.7636811 L28.5102233,94.9487051 L29.2129991,95.8508602 L29.5089321,96.2136012 L30.1822189,97.0343353 L30.4262201,97.3380983 C30.6850963,97.6413393 30.9442334,97.9445803 31.2104166,98.2478213 L31.387872,98.4547664 C31.6689301,98.7728824 31.9502492,99.0985664 32.2386142,99.4091144 L32.4014557,99.5938775 L32.7120027,99.9268685 C43.0534792,101.184197 54.3346866,98.8023714 64.1435358,92.3521059 C66.4590682,90.8205039 69.2404212,86.9738836 71.9479214,89.7187107 L71.9849783,89.7481997 C73.8341683,86.8632345 75.3211405,83.8378703 76.4453729,80.7159491 C63.0560993,82.1288122 49.6078479,81.9289132 37.8013202,80.0129101 C31.1806667,78.933038 30.2858216,74.7977907 37.4391024,75.8706168 C40.0503069,76.2550178 44.1928475,75.6709787 45.7463654,74.2356727 C41.3300737,73.5775196 35.7597998,73.7620217 30.137855,73.1336186 C23.9240442,72.4454546 24.1385565,67.9993983 30.4116061,68.5917882 C39.5915324,69.4495793 44.8734412,69.1165883 46.2495038,67.5928152 C40.5753662,67.1564822 35.5231056,66.5497391 31.084632,65.7731081 C21.534398,64.093539 22.0229224,57.6949445 32.0387159,59.9809957 C40.2204553,61.8523738 45.2875909,62.4661629 47.2552585,61.8301918 C47.2552585,61.8301918 45.1471923,60.4614317 34.5687607,56.3559344 C31.6245662,55.2095163 29.8862859,53.7595962 29.2500559,52.5317571 C26.453828,55.0098783 23.8574984,57.7836725 21.5049091,60.8612297 C19.4782636,63.5019319 17.7248473,66.2613731 16.2159542,69.1019743 Z" fill="#003D6E"></path>
            </g>
        </g>
    </g>
</svg>