<?xml version="1.0" encoding="UTF-8" standalone="no"?>
<!DOCTYPE svg PUBLIC "-//W3C//DTD SVG 1.1//EN" "http://www.w3.org/Graphics/SVG/1.1/DTD/svg11.dtd">
<svg width="100%" height="100%" viewBox="0 0 4167 2917" version="1.1" xmlns="http://www.w3.org/2000/svg" xmlns:xlink="http://www.w3.org/1999/xlink" xml:space="preserve" xmlns:serif="http://www.serif.com/" style="fill-rule:evenodd;clip-rule:evenodd;stroke-linejoin:round;stroke-miterlimit:2;">
    <g transform="matrix(4.16667,0,0,4.16667,0,0)">
        <path d="M420.166,537L420.166,430.686C420.166,419.587 416.035,408.959 408.847,400.503L408.741,400.38C402.131,392.552 386.197,379.436 378.068,373.198C371.901,368.466 359.35,359.141 354.064,353.442C352.995,352.289 350.947,350.23 349.725,347.675C347.327,342.662 350.822,339.216 352.974,337.724C353.712,337.212 354.652,337.012 355.676,337.012C358.901,337.012 362.952,338.995 364.12,339.439C368.949,341.274 378.543,346.41 386.155,350.636C388.891,352.154 391.947,352.951 394.999,352.95C397.409,352.95 399.817,352.453 402.061,351.423C407.153,349.083 410.699,344.538 411.823,339.265C413.087,333.335 414.327,296.135 414.875,288.135C415.065,285.361 415.745,280.465 416.504,275.517C420.943,279.254 426.18,283.267 430.284,286.395C430.018,294.031 429.756,303.838 429.63,308.755C429.597,309.996 430.606,310.942 431.755,310.942C431.994,310.942 432.239,310.901 432.481,310.814C433.263,310.533 433.781,309.786 433.89,308.964L436.242,290.978C440.265,294.141 445.404,298.338 450.343,302.634L449.605,309.649C449.465,310.982 450.123,311.852 451.128,311.852C451.463,311.852 451.836,311.756 452.231,311.548C452.762,311.269 453.111,310.758 453.187,310.18C453.298,309.333 453.506,307.751 453.784,305.676C458.04,309.503 461.89,313.234 464.398,316.203L464.502,316.326C465.415,317.4 466.279,318.51 467.091,319.65C466.947,320.756 467.59,321.722 468.618,321.928C473.244,329.269 475.821,337.742 475.821,346.509L475.821,351.039C475.218,347.188 474.644,343.797 474.171,341.493C473.553,338.488 471.044,329.63 471.044,329.63C470.375,327.089 468.079,325.382 465.538,325.382C464.989,325.382 464.428,325.462 463.87,325.63C461.366,326.385 459.764,328.841 459.842,331.455L460.046,338.19C460.046,338.19 460.593,357.745 461.352,364.215C462.015,369.866 464.813,383.905 466.134,390.381C466.402,391.704 465.545,392.876 464.22,392.876C464.186,392.876 464.152,392.875 464.117,392.874C463.21,392.833 462.473,392.204 462.263,391.362L452.902,353.813C452.362,351.64 450.449,350.004 448.222,350.004C448.181,350.004 448.141,350.004 448.101,350.005C445.261,350.081 443.132,352.585 443.483,355.378C443.483,355.378 448.01,394.151 449.993,407.01C452.664,424.344 452.342,443.115 458.86,466.541C459.236,467.891 459.725,469.188 460.315,470.428C463.269,476.628 465.007,483.336 465.007,490.204L465.007,526.045C448.566,528.335 433.406,532.086 420.166,537ZM481.065,355.703L479.38,337.369L478.355,325.487C478.337,325.286 478.329,325.085 478.329,324.886C478.329,325.085 478.337,325.286 478.355,325.487L479.38,337.369L481.065,355.702L481.065,355.703ZM485.685,318.153C485.386,318.118 485.084,318.096 484.777,318.096C484.532,318.096 484.284,318.11 484.032,318.143C484.33,318.104 484.626,318.085 484.918,318.085C485.178,318.085 485.435,318.1 485.688,318.129C485.687,318.137 485.686,318.145 485.685,318.153ZM450.656,268.774C447.603,268.774 444.546,267.977 441.811,266.459C441.181,266.109 440.536,265.752 439.882,265.392L441.804,252.788C442.295,249.563 445.068,247.176 448.336,247.176C448.628,247.176 448.923,247.195 449.222,247.235C452.757,247.698 455.206,251.027 454.898,254.578L453.875,266.46L453.687,268.507C452.685,268.686 451.671,268.774 450.656,268.774ZM460.265,265.809C461.17,262.392 462.209,258.722 462.209,258.722C462.869,256.222 465.102,254.529 467.594,254.476C467.556,254.707 467.518,254.912 467.48,255.089C466.553,259.43 463.986,263.279 460.265,265.809ZM431.916,261.094C427.915,258.988 424.105,257.081 421.299,255.88C422.43,254.923 423.891,254.353 425.467,254.353L425.542,254.353C429.202,254.395 432.081,257.463 431.916,261.094Z" style="fill:rgb(238,190,27);fill-rule:nonzero;"/>
        <path d="M532.188,525.076C527.812,524.603 523.357,524.233 518.835,523.969L518.835,523.964C520.534,524.06 522.224,524.172 523.901,524.3L523.901,472.032C521.976,474.375 520.279,476.877 518.835,479.504L518.835,479.501C520.406,476.643 522.268,473.929 524.409,471.411L524.512,471.288C531.124,463.46 547.057,450.344 555.186,444.106C558.133,441.844 562.542,438.529 566.918,435.065C562.542,438.531 558.133,441.844 555.186,444.106C549.297,448.626 539.322,456.751 531.753,463.865L531.753,525.029C531.897,525.044 532.043,525.06 532.188,525.076ZM547.099,421.544C553.676,417.893 561.735,413.561 566.918,411.267L566.918,411.27C561.732,413.563 553.679,417.891 547.099,421.544ZM530.966,361.302C530.932,361.302 530.898,361.301 530.863,361.3C529.956,361.259 529.217,360.63 529.007,359.788L523.901,339.307L523.901,335.119C523.901,329.403 525.106,323.798 527.213,318.504C527.441,323.863 527.746,329.65 528.097,332.641C528.76,338.291 531.56,352.331 532.878,358.807C533.148,360.129 532.29,361.302 530.966,361.302ZM548.872,351.186C548.537,351.186 548.164,351.09 547.769,350.882C547.238,350.603 546.889,350.092 546.812,349.514C546.213,344.95 542.78,319.001 540.915,309.918C540.297,306.914 537.789,298.056 537.789,298.056C537.268,296.079 535.763,294.607 533.924,294.051C536.604,278.355 536.943,264.747 538.919,251.925C540.594,241.054 544.089,211.658 545.129,202.832C545.192,203.067 545.243,203.308 545.28,203.554L549.262,229.679L553.192,259.729C553.301,260.551 553.82,261.298 554.599,261.58C554.842,261.667 555.087,261.708 555.325,261.708C556.475,261.708 557.484,260.762 557.452,259.521C557.273,252.559 556.824,235.796 556.475,229.272C556.244,224.962 555.178,212.058 555.178,212.058C554.897,208.342 557.814,205.161 561.54,205.119L561.614,205.119C564.809,205.119 567.526,207.457 567.998,210.623C567.998,210.623 571.719,231.77 572.207,238.901C572.755,246.901 573.995,284.1 575.26,290.031C575.557,291.428 576.025,292.775 576.647,294.043C575.982,293.812 575.27,293.687 574.532,293.687L574.457,293.687C570.73,293.73 567.814,296.91 568.095,300.626C568.095,300.626 569.161,313.53 569.392,317.84C569.739,324.364 570.191,341.128 570.368,348.089C570.401,349.33 569.392,350.276 568.243,350.276C568.004,350.276 567.759,350.235 567.517,350.148C566.735,349.867 566.219,349.12 566.11,348.298L562.18,318.247L558.195,292.122C557.705,288.897 554.932,286.51 551.662,286.51C551.37,286.51 551.075,286.529 550.776,286.569C547.243,287.032 544.794,290.36 545.099,293.913L546.125,305.794L548.025,326.466L550.394,348.983C550.534,350.316 549.877,351.186 548.872,351.186ZM585.897,343.418C585.577,336.307 585.31,330.194 585.123,327.469C584.677,320.94 581.52,302.659 580.99,299.621C582.189,300.64 583.54,301.507 585.021,302.188C587.265,303.219 589.672,303.716 592.082,303.716C595.135,303.716 598.193,302.919 600.927,301.401C608.539,297.176 618.134,292.039 622.962,290.205C624.13,289.76 628.182,287.778 631.407,287.778C632.431,287.778 633.372,287.978 634.11,288.49C636.26,289.981 639.755,293.427 637.357,298.44C636.135,300.996 634.087,303.055 633.018,304.208C627.732,309.907 615.181,319.232 609.014,323.963C603.209,328.418 593.425,336.379 585.897,343.418ZM510.47,325.869C509.776,325.554 509.017,325.357 508.224,325.303C508.222,325.294 508.221,325.284 508.22,325.276C509.014,325.329 509.773,325.526 510.467,325.844C510.468,325.852 510.469,325.861 510.47,325.869ZM524.69,237.791C523.365,237.791 522.508,236.619 522.776,235.296C523.719,230.659 525.424,222.144 526.56,215.607C527.155,217.828 527.741,220.098 527.999,221.35C528.297,222.803 528.636,224.69 528.997,226.851L526.647,236.277C526.438,237.119 525.699,237.748 524.793,237.789C524.759,237.791 524.724,237.791 524.69,237.791ZM532.742,211.824L532.182,205.344C531.931,202.433 533.532,199.671 536.064,198.515C536.043,198.585 536.024,198.656 536.006,198.728L532.742,211.824Z" style="fill:rgb(19,177,211);fill-rule:nonzero;"/>
        <path d="M518.835,523.964C516.931,523.857 515.015,523.768 513.089,523.696L513.089,501.594C513.089,493.8 515.13,486.242 518.835,479.504L518.835,523.964Z" style="fill:rgb(152,181,62);fill-rule:nonzero;"/>
        <path d="M523.901,524.3C522.224,524.172 520.534,524.06 518.835,523.964L518.835,479.504C520.279,476.877 521.976,474.375 523.901,472.032L523.901,524.3Z" style="fill:rgb(21,150,74);fill-rule:nonzero;"/>
        <path d="M521.477,410.381C521.476,410.374 521.474,410.367 521.472,410.36C521.474,410.367 521.476,410.374 521.477,410.381ZM521.471,410.352C521.466,410.334 521.461,410.315 521.458,410.297C521.461,410.315 521.466,410.334 521.471,410.352ZM521.458,410.296C521.453,410.277 521.45,410.257 521.445,410.238C521.45,410.257 521.453,410.277 521.458,410.296ZM521.445,410.235C521.443,410.227 521.44,410.219 521.44,410.211C521.44,410.219 521.443,410.227 521.445,410.235ZM482.126,382.76C481.792,382.76 481.42,382.664 481.025,382.457C480.492,382.177 480.143,381.666 480.065,381.089C479.62,377.683 477.596,362.377 475.821,351.05L475.821,351.039C476.946,358.222 478.172,367.007 479.032,373.344C479.933,367.176 480.529,361.32 481.065,355.703L481.28,358.041L483.648,380.557C483.788,381.89 483.131,382.76 482.126,382.76ZM501.497,381.85C501.258,381.85 501.013,381.81 500.77,381.722C499.991,381.441 499.473,380.694 499.364,379.872L495.434,349.821L491.451,323.697C490.998,320.728 488.613,318.47 485.688,318.129C487.659,302.563 489.77,284.47 489.77,284.47C490.123,281.677 487.992,279.173 485.153,279.097C485.113,279.096 485.073,279.096 485.032,279.096C482.805,279.096 480.892,280.732 480.35,282.905L470.992,320.454C470.78,321.296 470.044,321.925 469.136,321.966C469.101,321.967 469.067,321.968 469.033,321.968C468.889,321.968 468.75,321.954 468.618,321.928C468.132,321.156 467.623,320.396 467.091,319.65C467.099,319.591 467.109,319.532 467.121,319.473C468.438,312.997 471.24,298.957 471.901,293.307C472.66,286.837 473.209,267.281 473.209,267.281L473.411,260.547C473.491,257.933 471.888,255.477 469.384,254.722C468.826,254.554 468.266,254.474 467.717,254.474C467.676,254.474 467.635,254.475 467.594,254.476C468.818,246.964 470.001,211.72 470.531,203.958C471.02,196.828 474.739,175.681 474.739,175.681C475.211,172.515 477.93,170.176 481.123,170.176C481.147,170.176 481.172,170.177 481.197,170.177C484.924,170.219 487.841,173.4 487.56,177.116C487.56,177.116 486.493,190.02 486.263,194.329C485.915,200.854 485.465,217.617 485.286,224.579C485.254,225.82 486.263,226.766 487.413,226.765C487.651,226.765 487.896,226.725 488.139,226.637C488.919,226.356 489.438,225.609 489.545,224.787L493.476,194.736L497.459,168.612C497.95,165.387 500.724,163 503.992,163C504.284,163 504.58,163.019 504.878,163.058C508.412,163.521 510.862,166.85 510.556,170.402L509.53,182.284L507.63,202.956L505.263,225.472C505.122,226.806 505.779,227.675 506.783,227.675C507.117,227.675 507.49,227.579 507.885,227.372C508.418,227.092 508.768,226.581 508.843,226.004C509.442,221.439 512.875,195.49 514.74,186.408C515.357,183.404 517.866,174.546 517.866,174.546C518.537,172.004 520.831,170.298 523.373,170.298C523.922,170.298 524.483,170.377 525.041,170.546C527.544,171.301 529.146,173.756 529.068,176.371L528.864,183.105C528.864,183.105 528.317,202.66 527.558,209.131C527.37,210.735 527.01,213.016 526.56,215.607C525.726,212.5 524.873,209.488 524.873,209.488C524.203,206.946 521.906,205.24 519.366,205.24C518.817,205.24 518.255,205.319 517.698,205.488C515.193,206.243 513.591,208.698 513.671,211.313L513.874,218.047C513.874,218.047 514.422,237.603 515.181,244.073C515.844,249.723 518.643,263.763 519.961,270.238C520.231,271.561 519.374,272.734 518.049,272.734C518.015,272.734 517.981,272.733 517.945,272.731C517.038,272.691 516.302,272.061 516.091,271.219L506.732,233.67C506.19,231.498 504.278,229.861 502.05,229.861C502.01,229.861 501.969,229.862 501.929,229.863C499.09,229.938 496.961,232.442 497.311,235.235C497.311,235.235 501.838,274.009 503.82,286.867C505.639,298.665 506.074,311.131 508.22,325.276C508.076,325.266 507.931,325.261 507.786,325.261C507.761,325.261 507.736,325.261 507.711,325.262C503.984,325.304 501.068,328.484 501.349,332.201C501.349,332.201 502.415,345.105 502.646,349.414C502.995,355.939 503.445,372.702 503.624,379.664C503.656,380.904 502.647,381.85 501.497,381.85ZM453.784,305.676C452.66,304.665 451.507,303.647 450.343,302.634L451.973,287.133L453.687,268.507C455.064,268.261 456.419,267.843 457.718,267.246C458.617,266.833 459.467,266.351 460.265,265.809C459.764,267.7 459.304,269.514 459.085,270.584C457.565,277.982 455.005,296.568 453.784,305.676ZM436.242,290.978C435.342,290.271 434.498,289.615 433.725,289.021C432.726,288.255 431.56,287.368 430.284,286.395C430.394,283.221 430.506,280.422 430.608,278.506C430.837,274.196 431.904,261.292 431.904,261.292C431.909,261.226 431.913,261.16 431.916,261.094C434.566,262.488 437.301,263.97 439.882,265.392L437.82,278.913L436.242,290.978ZM416.504,275.517C413.803,273.244 411.396,271.072 409.722,269.266C408.652,268.112 406.603,266.054 405.38,263.498C402.984,258.485 406.478,255.039 408.63,253.548C409.368,253.036 410.308,252.836 411.332,252.836C414.556,252.836 418.608,254.818 419.777,255.262C420.242,255.439 420.751,255.646 421.299,255.88C420.138,256.863 419.323,258.254 419.084,259.857C419.084,259.857 417.696,267.75 416.504,275.517ZM535.954,262.617C535.62,262.617 535.248,262.521 534.854,262.314C534.32,262.034 533.971,261.523 533.894,260.946C533.393,257.112 530.89,238.192 528.997,226.851L532.742,211.824L533.209,217.226L535.109,237.898L537.477,260.415C537.616,261.748 536.959,262.617 535.954,262.617ZM545.129,202.832C544.362,199.979 541.765,197.942 538.746,197.942C538.454,197.942 538.159,197.961 537.86,198C537.223,198.084 536.621,198.26 536.064,198.515C536.674,196.449 538.536,194.919 540.689,194.919C540.729,194.919 540.769,194.92 540.81,194.921C543.649,194.996 545.778,197.5 545.427,200.293C545.427,200.293 545.319,201.219 545.129,202.832Z" style="fill:rgb(152,181,62);fill-rule:nonzero;"/>
        <path d="M479.032,373.344C478.172,367.007 476.946,358.222 475.821,351.039L475.821,346.509C475.821,337.742 473.244,329.269 468.618,321.928C468.75,321.954 468.889,321.968 469.033,321.968C469.067,321.968 469.101,321.967 469.136,321.966C470.044,321.925 470.78,321.296 470.992,320.454L480.35,282.905C480.892,280.732 482.805,279.096 485.032,279.096C485.073,279.096 485.113,279.096 485.153,279.097C487.992,279.173 490.123,281.677 489.77,284.47C489.77,284.47 487.659,302.563 485.688,318.129C485.435,318.1 485.178,318.085 484.918,318.085C484.626,318.085 484.33,318.104 484.032,318.143C480.697,318.58 478.329,321.567 478.329,324.886C478.329,325.085 478.337,325.286 478.355,325.487L479.38,337.369L481.065,355.703C480.529,361.32 479.933,367.176 479.032,373.344ZM467.091,319.65C466.279,318.51 465.415,317.4 464.502,316.326L464.398,316.203C461.89,313.234 458.04,309.503 453.784,305.676C455.005,296.568 457.565,277.982 459.085,270.584C459.304,269.514 459.764,267.7 460.265,265.809C463.986,263.279 466.553,259.43 467.48,255.089C467.518,254.912 467.556,254.707 467.594,254.476C467.635,254.475 467.676,254.474 467.717,254.474C468.266,254.474 468.826,254.554 469.384,254.722C471.888,255.477 473.491,257.933 473.411,260.547L473.209,267.281C473.209,267.281 472.66,286.837 471.901,293.307C471.24,298.957 468.438,312.997 467.121,319.473C467.109,319.532 467.099,319.591 467.091,319.65ZM450.343,302.634C445.404,298.338 440.265,294.141 436.242,290.978L437.82,278.913L439.882,265.392C440.536,265.752 441.181,266.109 441.811,266.459C444.546,267.977 447.603,268.774 450.656,268.774C451.671,268.774 452.685,268.686 453.687,268.507L451.973,287.133L450.343,302.634ZM430.284,286.395C426.18,283.267 420.943,279.254 416.504,275.517C417.696,267.75 419.084,259.857 419.084,259.857C419.323,258.254 420.138,256.863 421.299,255.88C424.105,257.081 427.915,258.988 431.916,261.094C431.913,261.16 431.909,261.226 431.904,261.292C431.904,261.292 430.837,274.196 430.608,278.506C430.506,280.422 430.394,283.221 430.284,286.395Z" style="fill:rgb(145,148,60);fill-rule:nonzero;"/>
        <path d="M523.901,339.307L519.648,322.239C519.107,320.066 517.193,318.43 514.968,318.43C514.927,318.43 514.887,318.43 514.847,318.431C512.007,318.507 509.876,321.011 510.229,323.804C510.229,323.804 510.316,324.553 510.467,325.844C509.773,325.526 509.014,325.329 508.22,325.276C506.074,311.131 505.639,298.665 503.82,286.867C501.838,274.009 497.311,235.235 497.311,235.235C496.961,232.442 499.09,229.938 501.929,229.863C501.969,229.862 502.01,229.861 502.05,229.861C504.278,229.861 506.19,231.498 506.732,233.67L516.091,271.219C516.302,272.061 517.038,272.691 517.945,272.731C517.981,272.733 518.015,272.734 518.049,272.734C519.374,272.734 520.231,271.561 519.961,270.238C518.643,263.763 515.844,249.723 515.181,244.073C514.422,237.603 513.874,218.047 513.874,218.047L513.671,211.313C513.591,208.698 515.193,206.243 517.698,205.488C518.255,205.319 518.817,205.24 519.366,205.24C521.906,205.24 524.203,206.946 524.873,209.488C524.873,209.488 525.726,212.5 526.56,215.607C525.424,222.144 523.719,230.659 522.776,235.296C522.508,236.619 523.365,237.791 524.69,237.791C524.724,237.791 524.759,237.791 524.793,237.789C525.699,237.748 526.438,237.119 526.647,236.277L528.997,226.851C530.89,238.192 533.393,257.112 533.894,260.946C533.971,261.523 534.32,262.034 534.854,262.314C535.248,262.521 535.62,262.617 535.954,262.617C536.959,262.617 537.616,261.748 537.477,260.415L535.109,237.898L533.209,217.226L532.742,211.824L536.006,198.728C536.024,198.656 536.043,198.585 536.064,198.515C536.621,198.26 537.223,198.084 537.86,198C538.159,197.961 538.454,197.942 538.746,197.942C541.765,197.942 544.362,199.979 545.129,202.832C544.089,211.658 540.594,241.054 538.919,251.925C536.943,264.747 536.604,278.355 533.924,294.051C533.399,293.892 532.846,293.808 532.282,293.808C531.733,293.808 531.173,293.888 530.614,294.056C528.11,294.811 526.508,297.267 526.588,299.881L526.79,306.615C526.79,306.615 526.949,312.27 527.213,318.504C525.106,323.798 523.901,329.403 523.901,335.119L523.901,339.307Z" style="fill:rgb(21,150,74);fill-rule:nonzero;"/>
        <path d="M514.166,330.745C514.164,330.74 514.164,330.735 514.164,330.731L514.164,330.743C514.166,330.743 514.166,330.744 514.166,330.745Z" style="fill:rgb(152,181,62);fill-rule:nonzero;"/>
        <path d="M514.164,330.743L514.164,330.737L514.164,330.743Z" style="fill:rgb(21,150,74);fill-rule:nonzero;"/>
        <path d="M514.163,330.727C514.154,330.667 514.143,330.607 514.133,330.547C514.141,330.594 514.149,330.64 514.156,330.686L514.156,330.689C514.158,330.697 514.159,330.705 514.161,330.713L514.161,330.715C514.162,330.719 514.162,330.723 514.163,330.727Z" style="fill:rgb(152,181,62);fill-rule:nonzero;"/>
        <path d="M514.161,330.715L514.161,330.713L514.161,330.715ZM514.156,330.689L514.156,330.686L514.156,330.689Z" style="fill:rgb(21,150,74);fill-rule:nonzero;"/>
        <path d="M514.132,330.542C514.13,330.537 514.13,330.533 514.129,330.529C514.13,330.533 514.13,330.537 514.132,330.542Z" style="fill:rgb(152,181,62);fill-rule:nonzero;"/>
        <path d="M579.833,535.23C565.677,530.455 549.564,526.958 532.188,525.076C544.476,526.402 556.139,528.533 566.918,531.36L566.918,435.065C571.694,431.286 576.431,427.324 579.189,424.35C580.259,423.197 582.306,421.139 583.529,418.583C585.928,413.57 582.432,410.124 580.282,408.633C579.543,408.12 578.603,407.921 577.579,407.921C574.354,407.921 570.302,409.903 569.133,410.347C568.477,410.597 567.733,410.907 566.918,411.267L566.918,381.452C566.918,370.352 571.049,359.725 578.237,351.268L578.341,351.145C580.231,348.908 582.884,346.237 585.897,343.418C586.519,357.184 587.342,374.689 588.176,378.599C589.3,383.872 592.847,388.417 597.938,390.757C600.182,391.788 602.589,392.284 604.999,392.284C608.052,392.284 611.109,391.487 613.843,389.97C621.456,385.744 631.05,380.608 635.879,378.773C637.046,378.329 641.098,376.346 644.323,376.346C645.347,376.346 646.288,376.546 647.026,377.059C649.178,378.55 652.672,381.996 650.275,387.009C649.052,389.564 647.005,391.623 645.936,392.776C640.65,398.475 628.097,407.8 621.932,412.532C613.803,418.77 597.868,431.886 591.258,439.714L591.153,439.837C583.965,448.293 579.833,458.921 579.833,470.02L579.833,535.23ZM580.99,299.621C579.162,298.069 577.689,296.166 576.647,294.043C578.862,294.812 580.553,296.757 580.915,299.191C580.915,299.191 580.941,299.342 580.99,299.621Z" style="fill:rgb(216,38,145);fill-rule:nonzero;"/>
        <path d="M566.918,531.36C556.139,528.533 544.476,526.402 532.188,525.076C532.043,525.06 531.897,525.044 531.753,525.029L531.753,463.865C539.322,456.751 549.297,448.626 555.186,444.106C558.133,441.844 562.542,438.531 566.918,435.067L566.918,531.36ZM538.254,423.859C535.844,423.858 533.436,423.362 531.192,422.331C526.169,420.022 522.648,415.565 521.477,410.381C521.935,412.413 522.771,414.325 523.901,416.048L523.901,339.307L529.007,359.788C529.217,360.63 529.956,361.259 530.863,361.3C530.898,361.301 530.932,361.302 530.966,361.302C532.29,361.302 533.148,360.129 532.878,358.807C531.56,352.331 528.76,338.291 528.097,332.641C527.746,329.65 527.441,323.863 527.213,318.504C527.638,317.437 528.099,316.383 528.595,315.343C529.186,314.103 529.675,312.806 530.05,311.456C531.747,305.358 532.98,299.575 533.924,294.051C535.763,294.607 537.268,296.079 537.789,298.056C537.789,298.056 540.297,306.914 540.915,309.918C542.78,319.001 546.213,344.95 546.812,349.514C546.889,350.092 547.238,350.603 547.769,350.882C548.164,351.09 548.537,351.186 548.872,351.186C549.877,351.186 550.534,350.316 550.394,348.983L548.025,326.466L546.125,305.794L545.099,293.913C544.794,290.36 547.243,287.032 550.776,286.569C551.075,286.529 551.37,286.51 551.662,286.51C554.932,286.51 557.705,288.897 558.195,292.122L562.18,318.247L566.11,348.298C566.219,349.12 566.735,349.867 567.517,350.148C567.759,350.235 568.004,350.276 568.243,350.276C569.392,350.276 570.401,349.33 570.368,348.089C570.191,341.128 569.739,324.364 569.392,317.84C569.161,313.53 568.095,300.626 568.095,300.626C567.814,296.91 570.73,293.73 574.457,293.687L574.532,293.687C575.27,293.687 575.982,293.812 576.647,294.043C577.689,296.166 579.162,298.069 580.99,299.621C581.52,302.659 584.677,320.94 585.123,327.469C585.31,330.194 585.577,336.307 585.897,343.418C582.884,346.237 580.231,348.908 578.341,351.145L578.237,351.268C571.049,359.725 566.918,370.352 566.918,381.452L566.918,411.267C561.735,413.561 553.676,417.893 547.099,421.544C544.364,423.062 541.307,423.859 538.254,423.859Z" style="fill:rgb(102,53,135);fill-rule:nonzero;"/>
        <path d="M521.472,410.36C521.472,410.357 521.471,410.355 521.471,410.352C521.471,410.355 521.472,410.357 521.472,410.36Z" style="fill:rgb(102,53,135);fill-rule:nonzero;"/>
        <path d="M521.458,410.297L521.458,410.296L521.458,410.297Z" style="fill:rgb(102,53,135);fill-rule:nonzero;"/>
        <path d="M521.445,410.238L521.445,410.235L521.445,410.238Z" style="fill:rgb(102,53,135);fill-rule:nonzero;"/>
        <path d="M521.44,410.211C521.437,410.198 521.434,410.186 521.432,410.173C520.166,404.243 518.926,367.043 518.379,359.043C517.89,351.913 514.169,330.766 514.169,330.766C514.168,330.759 514.167,330.752 514.166,330.745C514.167,330.752 514.168,330.759 514.169,330.766C514.169,330.766 517.89,351.913 518.379,359.043C518.926,367.043 520.166,404.243 521.432,410.173C521.434,410.186 521.437,410.198 521.44,410.211Z" style="fill:rgb(216,38,145);fill-rule:nonzero;"/>
        <path d="M521.44,410.211C521.437,410.198 521.434,410.186 521.432,410.173C521.434,410.186 521.437,410.198 521.44,410.211Z" style="fill:rgb(102,53,135);fill-rule:nonzero;"/>
        <path d="M514.164,330.731C514.163,330.729 514.163,330.728 514.163,330.727C514.163,330.728 514.163,330.729 514.164,330.731ZM514.133,330.547C514.132,330.545 514.132,330.543 514.132,330.542C514.132,330.543 514.132,330.546 514.133,330.547ZM514.129,330.529C513.736,328.422 512.326,326.728 510.471,325.873C510.471,325.872 510.47,325.871 510.47,325.869C512.227,326.668 513.575,328.228 514.052,330.175C514.054,330.18 514.055,330.184 514.056,330.188C514.057,330.191 514.057,330.194 514.057,330.197C514.059,330.199 514.059,330.2 514.06,330.202C514.085,330.31 514.109,330.419 514.129,330.529Z" style="fill:rgb(216,38,145);fill-rule:nonzero;"/>
        <path d="M514.06,330.202C514.059,330.2 514.059,330.199 514.057,330.197C514.059,330.199 514.059,330.2 514.06,330.202ZM514.056,330.188C514.055,330.184 514.054,330.18 514.052,330.175C514.054,330.18 514.055,330.184 514.056,330.188ZM514.052,330.175C513.575,328.228 512.227,326.668 510.47,325.869C510.469,325.861 510.468,325.852 510.467,325.844C512.226,326.648 513.575,328.223 514.052,330.175Z" style="fill:rgb(102,53,135);fill-rule:nonzero;"/>
        <path d="M521.432,410.173C520.166,404.243 518.926,367.043 518.379,359.043C517.89,351.913 514.169,330.766 514.169,330.766C514.168,330.759 514.167,330.752 514.166,330.745C514.166,330.744 514.166,330.743 514.164,330.743C514.167,330.75 514.168,330.758 514.169,330.766C514.169,330.766 517.89,351.913 518.379,359.043C518.926,367.043 520.166,404.243 521.432,410.173ZM514.164,330.737L514.164,330.731C514.163,330.729 514.163,330.728 514.163,330.727C514.162,330.723 514.162,330.719 514.161,330.715C514.162,330.723 514.163,330.73 514.164,330.737ZM514.161,330.713C514.159,330.705 514.158,330.697 514.156,330.689C514.158,330.697 514.159,330.706 514.161,330.713ZM514.156,330.686C514.149,330.64 514.141,330.594 514.133,330.547C514.132,330.546 514.132,330.543 514.132,330.542C514.13,330.537 514.13,330.533 514.129,330.529C514.109,330.419 514.085,330.31 514.06,330.202C514.098,330.361 514.13,330.522 514.156,330.686ZM514.057,330.197C514.057,330.194 514.057,330.191 514.056,330.188C514.057,330.191 514.057,330.194 514.057,330.197Z" style="fill:rgb(146,54,53);fill-rule:nonzero;"/>
        <path d="M523.901,416.048C522.771,414.325 521.935,412.413 521.477,410.381C521.476,410.374 521.474,410.367 521.472,410.36C521.472,410.357 521.471,410.355 521.471,410.352C521.466,410.334 521.461,410.315 521.458,410.297L521.458,410.296C521.453,410.277 521.45,410.257 521.445,410.238L521.445,410.235C521.443,410.227 521.44,410.219 521.44,410.211C521.437,410.198 521.434,410.186 521.432,410.173C520.166,404.243 518.926,367.043 518.379,359.043C517.89,351.913 514.169,330.766 514.169,330.766C514.168,330.758 514.167,330.75 514.164,330.743L514.164,330.737C514.163,330.73 514.162,330.723 514.161,330.715L514.161,330.713C514.159,330.706 514.158,330.697 514.156,330.689L514.156,330.686C514.13,330.522 514.098,330.361 514.06,330.202C514.059,330.2 514.059,330.199 514.057,330.197C514.057,330.194 514.057,330.191 514.056,330.188C514.055,330.184 514.054,330.18 514.052,330.175C513.575,328.223 512.226,326.648 510.467,325.844C510.316,324.553 510.229,323.804 510.229,323.804C509.876,321.011 512.007,318.507 514.847,318.431C514.887,318.43 514.927,318.43 514.968,318.43C517.193,318.43 519.107,320.066 519.648,322.239L523.901,339.307L523.901,416.048ZM527.213,318.504C526.949,312.27 526.79,306.615 526.79,306.615L526.588,299.881C526.508,297.267 528.11,294.811 530.614,294.056C531.173,293.888 531.733,293.808 532.282,293.808C532.846,293.808 533.399,293.892 533.924,294.051C532.98,299.575 531.747,305.358 530.05,311.456C529.675,312.806 529.186,314.103 528.595,315.343C528.099,316.383 527.638,317.437 527.213,318.504Z" style="fill:rgb(82,58,57);fill-rule:nonzero;"/>
    </g>
</svg>
